<?xml version="1.0" encoding="UTF-8" standalone="no"?>
<!DOCTYPE svg PUBLIC "-//W3C//DTD SVG 1.1//EN"
 "http://www.w3.org/Graphics/SVG/1.1/DTD/svg11.dtd">
<!-- Generated by graphviz version 9.0.0 (20230911.1827)
 -->
<!-- Pages: 1 -->
<svg width="1271pt" height="404pt"
 viewBox="0.00 0.00 1270.55 404.00" xmlns="http://www.w3.org/2000/svg" xmlns:xlink="http://www.w3.org/1999/xlink">
<g id="graph0" class="graph" transform="scale(1 1) rotate(0) translate(4 400)">
<polygon fill="white" stroke="none" points="-4,4 -4,-400 1266.55,-400 1266.55,4 -4,4"/>
<!-- [root] azurerm_resource_group.rg (expand) -->
<g id="node1" class="node">
<title>[root] azurerm_resource_group.rg (expand)</title>
<polygon fill="none" stroke="black" points="707.97,-180 541.22,-180 541.22,-144 707.97,-144 707.97,-180"/>
<text text-anchor="middle" x="624.59" y="-156.95" font-family="Times,serif" font-size="14.00">azurerm_resource_group.rg</text>
</g>
<!-- [root] provider[&quot;registry.terraform.io/hashicorp/azurerm&quot;] -->
<g id="node3" class="node">
<title>[root] provider[&quot;registry.terraform.io/hashicorp/azurerm&quot;]</title>
<polygon fill="none" stroke="black" points="287.59,-108 0,-90 287.59,-72 575.18,-90 287.59,-108"/>
<text text-anchor="middle" x="287.59" y="-84.95" font-family="Times,serif" font-size="14.00">provider[&quot;registry.terraform.io/hashicorp/azurerm&quot;]</text>
</g>
<!-- [root] azurerm_resource_group.rg (expand)&#45;&gt;[root] provider[&quot;registry.terraform.io/hashicorp/azurerm&quot;] -->
<g id="edge1" class="edge">
<title>[root] azurerm_resource_group.rg (expand)&#45;&gt;[root] provider[&quot;registry.terraform.io/hashicorp/azurerm&quot;]</title>
<path fill="none" stroke="black" d="M540.86,-143.61C486.35,-132.28 415.84,-117.64 363.07,-106.68"/>
<polygon fill="black" stroke="black" points="364.07,-103.31 353.57,-104.7 362.65,-110.17 364.07,-103.31"/>
</g>
<!-- [root] random_integer.id (expand) -->
<g id="node5" class="node">
<title>[root] random_integer.id (expand)</title>
<polygon fill="none" stroke="black" points="987.47,-108 871.72,-108 871.72,-72 987.47,-72 987.47,-108"/>
<text text-anchor="middle" x="929.59" y="-84.95" font-family="Times,serif" font-size="14.00">random_integer.id</text>
</g>
<!-- [root] azurerm_resource_group.rg (expand)&#45;&gt;[root] random_integer.id (expand) -->
<g id="edge2" class="edge">
<title>[root] azurerm_resource_group.rg (expand)&#45;&gt;[root] random_integer.id (expand)</title>
<path fill="none" stroke="black" d="M700.77,-143.52C749.77,-132.27 812.95,-117.77 860.49,-106.86"/>
<polygon fill="black" stroke="black" points="861.17,-110.29 870.14,-104.65 859.61,-103.47 861.17,-110.29"/>
</g>
<!-- [root] var.ressource_group_name -->
<g id="node6" class="node">
<title>[root] var.ressource_group_name</title>
<polygon fill="none" stroke="black" points="749.72,-108 593.47,-108 593.47,-72 755.72,-72 755.72,-102 749.72,-108"/>
<polyline fill="none" stroke="black" points="749.72,-108 749.72,-102"/>
<polyline fill="none" stroke="black" points="755.72,-102 749.72,-102"/>
<text text-anchor="middle" x="674.59" y="-84.95" font-family="Times,serif" font-size="14.00">var.ressource_group_name</text>
</g>
<!-- [root] azurerm_resource_group.rg (expand)&#45;&gt;[root] var.ressource_group_name -->
<g id="edge3" class="edge">
<title>[root] azurerm_resource_group.rg (expand)&#45;&gt;[root] var.ressource_group_name</title>
<path fill="none" stroke="black" d="M636.95,-143.7C642.64,-135.73 649.52,-126.1 655.83,-117.26"/>
<polygon fill="black" stroke="black" points="658.53,-119.51 661.5,-109.34 652.83,-115.44 658.53,-119.51"/>
</g>
<!-- [root] azurerm_storage_account.storagaeaccount (expand) -->
<g id="node2" class="node">
<title>[root] azurerm_storage_account.storagaeaccount (expand)</title>
<polygon fill="none" stroke="black" points="830.72,-252 584.47,-252 584.47,-216 830.72,-216 830.72,-252"/>
<text text-anchor="middle" x="707.59" y="-228.95" font-family="Times,serif" font-size="14.00">azurerm_storage_account.storagaeaccount</text>
</g>
<!-- [root] azurerm_storage_account.storagaeaccount (expand)&#45;&gt;[root] azurerm_resource_group.rg (expand) -->
<g id="edge4" class="edge">
<title>[root] azurerm_storage_account.storagaeaccount (expand)&#45;&gt;[root] azurerm_resource_group.rg (expand)</title>
<path fill="none" stroke="black" d="M687.08,-215.7C677,-207.2 664.68,-196.81 653.66,-187.51"/>
<polygon fill="black" stroke="black" points="656.22,-185.09 646.32,-181.32 651.71,-190.45 656.22,-185.09"/>
</g>
<!-- [root] provider[&quot;registry.terraform.io/hashicorp/random&quot;] -->
<g id="node4" class="node">
<title>[root] provider[&quot;registry.terraform.io/hashicorp/random&quot;]</title>
<polygon fill="none" stroke="black" points="717.59,-36 432.9,-18 717.59,0 1002.29,-18 717.59,-36"/>
<text text-anchor="middle" x="717.59" y="-12.95" font-family="Times,serif" font-size="14.00">provider[&quot;registry.terraform.io/hashicorp/random&quot;]</text>
</g>
<!-- [root] random_integer.id (expand)&#45;&gt;[root] provider[&quot;registry.terraform.io/hashicorp/random&quot;] -->
<g id="edge9" class="edge">
<title>[root] random_integer.id (expand)&#45;&gt;[root] provider[&quot;registry.terraform.io/hashicorp/random&quot;]</title>
<path fill="none" stroke="black" d="M876.64,-71.52C844.91,-61.04 804.63,-47.74 772.54,-37.14"/>
<polygon fill="black" stroke="black" points="774.03,-33.95 763.44,-34.14 771.84,-40.6 774.03,-33.95"/>
</g>
<!-- [root] local.max_int (expand) -->
<g id="node10" class="node">
<title>[root] local.max_int (expand)</title>
<ellipse fill="none" stroke="black" cx="1141.59" cy="-18" rx="120.96" ry="18"/>
<text text-anchor="middle" x="1141.59" y="-12.95" font-family="Times,serif" font-size="14.00">[root] local.max_int (expand)</text>
</g>
<!-- [root] random_integer.id (expand)&#45;&gt;[root] local.max_int (expand) -->
<g id="edge8" class="edge">
<title>[root] random_integer.id (expand)&#45;&gt;[root] local.max_int (expand)</title>
<path fill="none" stroke="black" d="M982.54,-71.52C1012.93,-61.48 1051.16,-48.86 1082.52,-38.51"/>
<polygon fill="black" stroke="black" points="1083.47,-41.88 1091.86,-35.42 1081.27,-35.23 1083.47,-41.88"/>
</g>
<!-- [root] output.created_ressource_name (expand) -->
<g id="node7" class="node">
<title>[root] output.created_ressource_name (expand)</title>
<ellipse fill="none" stroke="black" cx="379.59" cy="-234" rx="186.98" ry="18"/>
<text text-anchor="middle" x="379.59" y="-228.95" font-family="Times,serif" font-size="14.00">[root] output.created_ressource_name (expand)</text>
</g>
<!-- [root] output.created_ressource_name (expand)&#45;&gt;[root] azurerm_resource_group.rg (expand) -->
<g id="edge5" class="edge">
<title>[root] output.created_ressource_name (expand)&#45;&gt;[root] azurerm_resource_group.rg (expand)</title>
<path fill="none" stroke="black" d="M437.65,-216.41C472.17,-206.55 516.23,-193.96 552.9,-183.48"/>
<polygon fill="black" stroke="black" points="553.42,-186.98 562.07,-180.86 551.5,-180.24 553.42,-186.98"/>
</g>
<!-- [root] provider[&quot;registry.terraform.io/hashicorp/azurerm&quot;] (close) -->
<g id="node8" class="node">
<title>[root] provider[&quot;registry.terraform.io/hashicorp/azurerm&quot;] (close)</title>
<ellipse fill="none" stroke="black" cx="695.59" cy="-306" rx="254.54" ry="18"/>
<text text-anchor="middle" x="695.59" y="-300.95" font-family="Times,serif" font-size="14.00">[root] provider[&quot;registry.terraform.io/hashicorp/azurerm&quot;] (close)</text>
</g>
<!-- [root] provider[&quot;registry.terraform.io/hashicorp/azurerm&quot;] (close)&#45;&gt;[root] azurerm_storage_account.storagaeaccount (expand) -->
<g id="edge6" class="edge">
<title>[root] provider[&quot;registry.terraform.io/hashicorp/azurerm&quot;] (close)&#45;&gt;[root] azurerm_storage_account.storagaeaccount (expand)</title>
<path fill="none" stroke="black" d="M698.56,-287.7C699.82,-280.32 701.33,-271.52 702.75,-263.25"/>
<polygon fill="black" stroke="black" points="706.16,-264.04 704.4,-253.6 699.26,-262.86 706.16,-264.04"/>
</g>
<!-- [root] provider[&quot;registry.terraform.io/hashicorp/random&quot;] (close) -->
<g id="node9" class="node">
<title>[root] provider[&quot;registry.terraform.io/hashicorp/random&quot;] (close)</title>
<ellipse fill="none" stroke="black" cx="978.59" cy="-162" rx="252.49" ry="18"/>
<text text-anchor="middle" x="978.59" y="-156.95" font-family="Times,serif" font-size="14.00">[root] provider[&quot;registry.terraform.io/hashicorp/random&quot;] (close)</text>
</g>
<!-- [root] provider[&quot;registry.terraform.io/hashicorp/random&quot;] (close)&#45;&gt;[root] random_integer.id (expand) -->
<g id="edge7" class="edge">
<title>[root] provider[&quot;registry.terraform.io/hashicorp/random&quot;] (close)&#45;&gt;[root] random_integer.id (expand)</title>
<path fill="none" stroke="black" d="M966.48,-143.7C960.9,-135.73 954.16,-126.1 947.98,-117.26"/>
<polygon fill="black" stroke="black" points="951.04,-115.53 942.43,-109.34 945.3,-119.54 951.04,-115.53"/>
</g>
<!-- [root] root -->
<g id="node11" class="node">
<title>[root] root</title>
<ellipse fill="none" stroke="black" cx="695.59" cy="-378" rx="49.3" ry="18"/>
<text text-anchor="middle" x="695.59" y="-372.95" font-family="Times,serif" font-size="14.00">[root] root</text>
</g>
<!-- [root] root&#45;&gt;[root] output.created_ressource_name (expand) -->
<g id="edge10" class="edge">
<title>[root] root&#45;&gt;[root] output.created_ressource_name (expand)</title>
<path fill="none" stroke="black" d="M648.38,-372.19C582.12,-364.67 465.79,-348.41 431.59,-324 410.8,-309.15 397.02,-283.18 388.91,-263.12"/>
<polygon fill="black" stroke="black" points="392.2,-261.94 385.41,-253.81 385.65,-264.41 392.2,-261.94"/>
</g>
<!-- [root] root&#45;&gt;[root] provider[&quot;registry.terraform.io/hashicorp/azurerm&quot;] (close) -->
<g id="edge11" class="edge">
<title>[root] root&#45;&gt;[root] provider[&quot;registry.terraform.io/hashicorp/azurerm&quot;] (close)</title>
<path fill="none" stroke="black" d="M695.59,-359.7C695.59,-352.41 695.59,-343.73 695.59,-335.54"/>
<polygon fill="black" stroke="black" points="699.09,-335.62 695.59,-325.62 692.09,-335.62 699.09,-335.62"/>
</g>
<!-- [root] root&#45;&gt;[root] provider[&quot;registry.terraform.io/hashicorp/random&quot;] (close) -->
<g id="edge12" class="edge">
<title>[root] root&#45;&gt;[root] provider[&quot;registry.terraform.io/hashicorp/random&quot;] (close)</title>
<path fill="none" stroke="black" d="M744.04,-373.94C812.14,-368.56 931.07,-354.93 959.59,-324 992.6,-288.22 989.68,-227.3 984.31,-191.54"/>
<polygon fill="black" stroke="black" points="987.81,-191.23 982.7,-181.95 980.9,-192.39 987.81,-191.23"/>
</g>
</g>
</svg>
